<svg width="400" height="185" viewBox="0 0 400 185" fill="none" xmlns="http://www.w3.org/2000/svg">
<path d="M300 0H350V46.25H300V0Z" fill="#0C0C0C"/>
<path d="M350 0H400V46.25H350V0Z" fill="#0C0C0C"/>
<path d="M350 46H400V93H350V46Z" fill="#0C0C0C"/>
<path d="M250 46.25H300V92.5H250V46.25Z" fill="#0C0C0C"/>
<path d="M300 92.5H350V138.75H300V92.5Z" fill="#0C0C0C"/>
<path d="M350 138.75H400V185H350V138.75Z" fill="#0C0C0C"/>
<path d="M250 138.75H300V185H250V138.75Z" fill="#0C0C0C"/>
<path d="M200 138H250V185H200V138Z" fill="#0C0C0C"/>
<path d="M200 92.5H250V138.75H200V92.5Z" fill="#0C0C0C"/>
<path d="M150 92.5H200V138.75H150V92.5Z" fill="#0C0C0C"/>
<path d="M100 92.5H150V138.75H100V92.5Z" fill="#0C0C0C"/>
<path d="M50 92.5H100V138.75H50V92.5Z" fill="#0C0C0C"/>
<path d="M50 138H100V185H50V138Z" fill="#0C0C0C"/>
<path d="M0 92.5H50V138.75H0V92.5Z" fill="#0C0C0C"/>
<path d="M0 138H50V185H0V138Z" fill="#0C0C0C"/>
<path d="M150 46H200V93H150V46Z" fill="#0C0C0C"/>
</svg>
