<svg width="129" height="129" viewBox="0 0 129 129" fill="none" xmlns="http://www.w3.org/2000/svg">
<g clip-path="url(#clip0_1033_2994)">
<path d="M18.3325 37.5208C17.9838 38.1773 17.5354 38.6823 17.0871 39.0358C16.589 39.3893 16.0908 39.5913 15.5429 39.5913C14.9949 39.6418 14.3971 39.4398 13.7495 39.0863L14.5466 37.6723C14.8953 37.8743 15.244 37.9248 15.5429 37.9248C15.8418 37.9248 16.1406 37.7733 16.4395 37.5713C16.6886 37.3693 16.9377 37.0663 17.1867 36.6623C17.386 36.2583 17.5354 35.9553 17.5853 35.6523C17.6351 35.3493 17.5853 35.0968 17.4856 34.8948C17.386 34.6928 17.2366 34.4908 16.9875 34.3898C16.7384 34.2383 16.4893 34.1878 16.2403 34.2383C15.9912 34.2888 15.6923 34.3898 15.3934 34.6423C15.0945 34.8443 14.696 35.1473 14.2477 35.5513C13.7994 35.9553 13.3012 36.3088 12.8529 36.5108C12.4045 36.7633 11.9064 36.8643 11.4581 36.8643C11.0097 36.8643 10.5116 36.7633 10.0633 36.4603C9.26623 36.0058 8.8179 35.3998 8.71827 34.6423C8.61864 33.8848 8.8179 33.0769 9.31604 32.1679C9.66474 31.5619 10.0633 31.1074 10.4618 30.8044C10.8603 30.5014 11.3086 30.4004 11.8068 30.4004C12.3049 30.4004 12.8031 30.5519 13.4008 30.8044L12.6038 32.2184C12.3049 32.1174 12.0558 32.0164 11.8068 32.0669C11.5577 32.1174 11.3584 32.1679 11.1094 32.3194C10.8603 32.4709 10.7109 32.6729 10.5614 32.9759C10.3123 33.4304 10.2127 33.8343 10.2127 34.1878C10.2127 34.5413 10.4618 34.8443 10.8105 35.0463C11.0097 35.1473 11.209 35.2483 11.4581 35.2483C11.7071 35.2483 11.9562 35.1978 12.2551 35.0463C12.554 34.8948 12.9525 34.5918 13.4507 34.2383C13.8492 33.9353 14.1979 33.6323 14.4968 33.3799C14.8455 33.1274 15.1443 32.9254 15.493 32.7234C15.8418 32.5719 16.1905 32.4709 16.5392 32.4709C16.8879 32.4709 17.2864 32.6224 17.6849 32.8244C18.4819 33.2789 18.9303 33.8848 19.0797 34.6928C19.1295 35.5513 18.9303 36.4603 18.3325 37.5208Z" fill="white"/>
<path d="M20.4235 33.633L12.4531 27.2195L13.4992 25.9066L21.4197 32.32L20.4235 33.633ZM23.9105 29.1385L15.99 22.7251L17.0361 21.4121L24.9566 27.8255L23.9105 29.1385ZM17.6338 29.896L16.4881 28.987L19.477 25.1996L20.6227 26.159L17.6338 29.896Z" fill="white"/>
<path d="M28.9922 24.2396C28.3944 24.7951 27.697 25.1486 26.9 25.3001C26.1029 25.4516 25.3059 25.3506 24.5089 25.0476C23.662 24.6941 22.865 24.1386 22.1178 23.2296C21.3705 22.3711 20.8724 21.5631 20.6731 20.7046C20.4241 19.8461 20.4241 19.0381 20.6731 18.2806C20.9222 17.5232 21.3207 16.8667 21.9683 16.2607C22.6159 15.7052 23.3133 15.3012 24.0605 15.1497C24.8077 14.9982 25.6048 15.0992 26.4516 15.4022C27.2985 15.7052 28.0457 16.3112 28.7929 17.1697C29.5401 18.0281 30.0881 18.8866 30.2873 19.7451C30.5364 20.6036 30.5364 21.4116 30.2873 22.1691C30.0383 22.9266 29.6398 23.6841 28.9922 24.2396ZM27.9959 23.1286C28.3944 22.7751 28.6435 22.3711 28.7929 21.8661C28.9424 21.3611 28.8925 20.8561 28.6933 20.2501C28.494 19.6441 28.0955 19.0381 27.5475 18.3816C26.9996 17.7756 26.4516 17.3212 25.9037 17.0687C25.3557 16.8162 24.8077 16.7152 24.3594 16.8162C23.8613 16.9172 23.4129 17.1192 23.0144 17.4727C22.6657 17.8261 22.4166 18.2301 22.2672 18.7351C22.1178 19.2401 22.1676 19.7451 22.317 20.3511C22.5163 20.9571 22.865 21.5631 23.4129 22.1691C23.8613 22.6741 24.2598 23.0276 24.7081 23.2801C25.1564 23.5326 25.555 23.6841 25.9535 23.7851C26.352 23.8356 26.7505 23.8356 27.0992 23.6841C27.3981 23.5326 27.697 23.3811 27.9959 23.1286Z" fill="white"/>
<path d="M34.2222 19.644L26.8496 12.1196L28.3939 11.2106L31.6816 14.8971L34.3218 17.927L34.3716 17.8765L33.0266 14.0386L31.4325 9.29164L33.0764 8.28165L36.3642 11.9681L39.0044 15.0486L39.0542 14.9981L37.8088 11.1096L36.3642 6.46368L37.9084 5.55469L40.6981 15.8061L38.8549 16.917L35.1686 12.9276L33.5248 10.9076H33.4749L34.3716 13.3316L36.0155 18.533L34.2222 19.644Z" fill="white"/>
<path d="M45.6803 13.6351L42.6914 3.78769L44.2357 3.28269L47.2245 13.1301L45.6803 13.6351ZM50.8112 12.0696L47.3242 8.88812L45.8795 9.34262L45.3814 9.39312L45.232 8.23163L45.1821 8.02963L46.7762 7.52464C47.1747 7.42364 47.4736 7.22164 47.6729 7.01965C47.8721 6.81765 47.9718 6.56515 48.0216 6.31265C48.0714 6.06016 48.0216 5.70666 47.9219 5.40367C47.8223 4.99967 47.623 4.74717 47.4238 4.59568C47.2245 4.44418 46.9755 4.34318 46.7264 4.34318C46.4773 4.34318 46.1784 4.39368 45.8795 4.49468L44.6342 4.89867L44.4847 4.54518L43.6379 3.53519C43.8371 3.48469 44.0364 3.43419 44.2357 3.33319C44.4349 3.23219 44.6342 3.23219 44.8334 3.13119C45.0327 3.03019 45.2818 2.9797 45.5308 2.9292C46.1286 2.7272 46.7264 2.6767 47.2245 2.7272C47.7725 2.7777 48.2208 2.9797 48.5695 3.28269C48.968 3.63619 49.2669 4.09068 49.4662 4.74717C49.6156 5.20167 49.6654 5.60566 49.6156 6.06016C49.5658 6.51465 49.4662 6.96915 49.2171 7.32264C48.968 7.72664 48.6193 8.02963 48.1212 8.33263L47.9718 8.28213C48.171 8.23163 48.3205 8.18113 48.4699 8.18113C48.6193 8.18113 48.719 8.18113 48.8684 8.28213C49.0179 8.38313 49.1673 8.48413 49.3666 8.63563L52.7041 11.4636L50.8112 12.0696Z" fill="white"/>
<path d="M53.2523 11.4126L51.6582 1.26222L57.7854 0.302734L58.0345 1.81772L52.8538 2.62571L53.4017 1.76722L53.9995 5.60517L53.2523 5.25167L58.0345 4.49418L58.2835 6.00916L53.8002 6.71616L54.0991 6.11016L54.7467 10.3521L53.9497 9.69562L59.1802 8.83713L59.4293 10.4026L53.2523 11.4126Z" fill="white"/>
<path d="M60.4258 10.4029L60.2266 0.100999L66.3538 0L66.4036 1.56548L61.173 1.66648L61.8704 0.908989L61.9701 4.79744L61.2727 4.34295L66.1047 4.24195L66.1545 5.75693L61.5716 5.85793L61.9701 5.30244L62.0697 9.59488L61.3723 8.83739L66.7025 8.73639L66.7523 10.3019L60.4258 10.4029Z" fill="white"/>
<path d="M67.6484 10.3532L68.7444 0.152344L70.3882 0.354341L69.3421 9.89872L68.6447 8.93924L73.6262 9.49473L73.4767 11.0602L67.6484 10.3532Z" fill="white"/>
<path d="M92.2559 19.7957L99.2299 9.44336L101.97 11.3118L101.222 12.3723L99.2299 10.9583L100.077 10.7058L93.7503 20.0482L93.6507 19.1392L95.6433 20.5532L94.896 21.6137L92.2559 19.7957Z" fill="white"/>
<path d="M96.0918 20.8067C96.5401 20.7057 96.9386 20.6552 97.387 20.5542C97.8353 20.4532 98.2338 20.4027 98.6822 20.3017C99.1305 20.2007 99.529 20.1502 99.9275 20.0492C100.326 19.9482 100.774 19.8977 101.173 19.7967C101.721 19.6957 102.269 19.5947 102.717 19.4937C103.165 19.3927 103.564 19.2917 103.963 19.1402C104.361 18.9887 104.66 18.7362 104.909 18.4332C105.208 18.0797 105.357 17.7262 105.307 17.3222C105.258 16.9687 105.058 16.6152 104.71 16.3122C104.461 16.1102 104.162 15.9587 103.863 15.8577C103.564 15.7567 103.265 15.8072 102.966 16.0092C102.667 16.1607 102.319 16.4637 102.02 16.9182L100.824 15.9082C101.273 15.2012 101.82 14.6962 102.319 14.4437C102.817 14.1913 103.415 14.1408 103.963 14.2922C104.51 14.4437 105.108 14.7467 105.656 15.2517C106.154 15.6557 106.503 16.1102 106.702 16.5647C106.902 17.0192 106.951 17.5242 106.902 17.9787C106.802 18.4332 106.603 18.9382 106.204 19.3927C105.855 19.7967 105.507 20.0997 105.158 20.3017C104.809 20.5037 104.411 20.6552 103.963 20.7562C103.564 20.8572 103.066 20.9582 102.568 21.1097C102.169 21.2107 101.771 21.3117 101.372 21.3622C100.974 21.4632 100.575 21.5137 100.177 21.6147C99.7781 21.6652 99.4294 21.7662 99.0807 21.8167C99.3297 21.7662 99.529 21.8167 99.7283 21.9682C99.9275 22.1197 100.226 22.3216 100.575 22.6246L102.219 24.0386L101.223 25.2001L96.0918 20.8067Z" fill="white"/>
<path d="M103.914 28.5312C103.416 27.9757 103.167 27.3697 103.067 26.7637C102.967 26.1072 103.117 25.4002 103.515 24.6428C103.914 23.8853 104.561 23.0773 105.508 22.2188C106.405 21.4108 107.251 20.8553 108.048 20.5523C108.796 20.2493 109.543 20.1988 110.141 20.3503C110.788 20.5018 111.336 20.8553 111.785 21.4108C112.283 21.9663 112.532 22.5218 112.631 23.1783C112.731 23.8348 112.582 24.5418 112.183 25.2487C111.834 26.0062 111.187 26.7637 110.24 27.5717C109.294 28.4302 108.447 28.9857 107.65 29.2887C106.853 29.5917 106.156 29.6422 105.558 29.4907C104.96 29.3897 104.412 29.0362 103.914 28.5312ZM105.06 27.5212C105.309 27.8242 105.608 27.9757 105.956 28.0262C106.305 28.0767 106.753 27.9757 107.301 27.7232C107.799 27.4707 108.447 27.0162 109.144 26.3597C109.842 25.7537 110.29 25.1982 110.589 24.6933C110.888 24.1883 111.037 23.7843 111.037 23.3803C111.037 23.0268 110.888 22.6733 110.639 22.3703C110.39 22.1178 110.091 21.9158 109.692 21.8653C109.294 21.8148 108.895 21.9158 108.347 22.1178C107.849 22.3703 107.251 22.7743 106.554 23.3803C105.857 24.0368 105.309 24.5923 105.01 25.0972C104.711 25.6022 104.561 26.0567 104.561 26.4102C104.561 26.7637 104.811 27.2182 105.06 27.5212Z" fill="white"/>
<path d="M106.553 31.1588C107.001 31.2093 107.449 31.2598 107.848 31.2598C108.296 31.3103 108.745 31.3608 109.143 31.3608C109.542 31.3608 109.99 31.4113 110.438 31.4618C110.887 31.5123 111.285 31.5123 111.684 31.5628C112.232 31.6133 112.78 31.6638 113.228 31.6638C113.676 31.7143 114.125 31.7143 114.523 31.6638C114.922 31.6133 115.27 31.4618 115.619 31.2598C116.018 31.0073 116.217 30.6538 116.267 30.3003C116.316 29.9469 116.217 29.5429 115.968 29.1894C115.768 28.8864 115.519 28.6844 115.27 28.5329C115.021 28.3814 114.673 28.3309 114.374 28.4319C114.025 28.4824 113.626 28.7349 113.228 29.0884L112.381 27.7754C113.029 27.2199 113.626 26.8664 114.224 26.8159C114.822 26.7654 115.32 26.8159 115.868 27.1189C116.366 27.4219 116.815 27.8764 117.263 28.4824C117.612 29.0379 117.861 29.5429 117.91 30.0478C118.01 30.5528 117.91 31.0073 117.711 31.4618C117.512 31.9163 117.163 32.2698 116.665 32.6233C116.217 32.9263 115.818 33.1283 115.37 33.2293C114.971 33.3303 114.523 33.3808 114.075 33.3303C113.626 33.3303 113.178 33.2798 112.63 33.2798C112.232 33.2798 111.783 33.2293 111.385 33.2293C110.986 33.1788 110.588 33.1788 110.189 33.1283C109.791 33.0778 109.442 33.0778 109.093 33.0273C109.342 33.0273 109.542 33.1788 109.691 33.3303C109.84 33.5323 110.04 33.8353 110.339 34.1888L111.534 36.0068L110.289 36.8653L106.553 31.1588Z" fill="white"/>
<path d="M111.882 40.4003C111.683 39.9458 111.534 39.5418 111.434 39.0873C111.334 38.6328 111.334 38.1783 111.434 37.7743C111.534 37.3703 111.733 36.9663 112.032 36.6128C112.331 36.2593 112.729 35.9563 113.277 35.7544L113.975 37.2188C113.476 37.4713 113.128 37.7743 112.978 38.1783C112.829 38.5823 112.879 39.1378 113.178 39.7438C113.327 40.0468 113.526 40.2993 113.726 40.5518C113.975 40.7538 114.224 40.9053 114.473 40.9558C114.772 41.0063 115.071 40.9558 115.369 40.8043C115.917 40.5013 116.266 40.1478 116.316 39.6933C116.366 39.2388 116.316 38.7843 116.067 38.2793L115.619 37.3198L116.864 36.6633L117.312 37.6228C117.462 37.9258 117.661 38.1783 117.91 38.3298C118.159 38.4813 118.408 38.5318 118.657 38.5318C118.906 38.5318 119.155 38.4813 119.404 38.3298C119.803 38.1278 120.052 37.8248 120.152 37.4713C120.251 37.1178 120.201 36.7138 120.002 36.3098C119.803 35.9058 119.504 35.6028 119.155 35.4514C118.807 35.2999 118.358 35.4009 117.81 35.7038L117.113 34.2394C117.761 33.9364 118.309 33.7344 118.856 33.7344C119.355 33.7344 119.853 33.8859 120.251 34.2394C120.65 34.5424 120.999 35.0474 121.347 35.7038C121.796 36.6633 121.945 37.4713 121.696 38.1783C121.447 38.8853 120.998 39.3903 120.251 39.7438C119.952 39.8953 119.604 39.9963 119.255 39.9963C118.906 39.9963 118.558 39.9458 118.209 39.7943C117.86 39.6428 117.561 39.3398 117.262 38.9863C117.561 39.6933 117.611 40.3498 117.412 40.9053C117.213 41.4608 116.764 41.9153 116.117 42.2688C115.519 42.5718 114.971 42.6728 114.473 42.5718C113.925 42.5213 113.476 42.2688 113.028 41.9153C112.58 41.5618 112.181 41.0568 111.882 40.4003Z" fill="white"/>
<path d="M118.41 45.3981L119.705 44.9941L120.751 48.3776L119.456 48.7816L118.41 45.3981Z" fill="white"/>
<path d="M116.516 52.8738C116.914 53.1263 117.263 53.3283 117.661 53.5808C118.06 53.8333 118.409 54.0353 118.807 54.2373C119.206 54.4392 119.554 54.6917 119.903 54.8937C120.252 55.0957 120.65 55.2977 120.999 55.5502C121.497 55.8532 121.945 56.1057 122.344 56.3582C122.742 56.6107 123.141 56.7622 123.49 56.9137C123.838 57.0652 124.237 57.0652 124.635 57.0147C125.084 56.9642 125.432 56.7622 125.632 56.4592C125.831 56.1562 125.931 55.7522 125.831 55.2977C125.781 54.9442 125.682 54.6412 125.482 54.3887C125.283 54.1363 125.034 53.9848 124.685 53.8838C124.337 53.7828 123.888 53.8333 123.39 53.9343L123.191 52.3688C123.988 52.1668 124.685 52.1163 125.283 52.2678C125.831 52.4193 126.279 52.7728 126.628 53.2273C126.977 53.7323 127.176 54.3382 127.276 55.0957C127.375 55.7522 127.325 56.3077 127.176 56.8127C127.027 57.3177 126.777 57.7217 126.379 57.9742C125.98 58.2772 125.532 58.4792 124.934 58.5297C124.436 58.6307 123.938 58.5802 123.539 58.4792C123.141 58.3782 122.742 58.2267 122.344 58.0247C121.945 57.8227 121.547 57.6207 121.099 57.3682C120.75 57.1662 120.351 56.9642 120.003 56.7622C119.654 56.5602 119.305 56.3582 118.957 56.1562C118.608 55.9542 118.309 55.7522 118.01 55.6007C118.209 55.7522 118.359 55.9037 118.409 56.1562C118.458 56.4087 118.558 56.7622 118.608 57.2167L118.907 59.3882L117.412 59.5902L116.516 52.8738Z" fill="white"/>
<path d="M117.363 63.7805C117.363 63.124 117.513 62.518 117.812 61.9625C118.11 61.407 118.609 61.003 119.206 60.6495C119.804 60.3465 120.601 60.1445 121.498 60.1445C122.295 60.1445 122.992 60.2455 123.69 60.397C124.337 60.599 124.935 60.8515 125.483 61.1545C126.031 61.4575 126.479 61.7605 126.828 62.0635C127.227 62.3665 127.476 62.6695 127.725 62.8715L127.775 65.245C127.575 64.9925 127.326 64.74 127.077 64.437C126.778 64.134 126.479 63.831 126.131 63.528C125.782 63.225 125.433 62.922 124.985 62.6695C124.586 62.417 124.138 62.1645 123.64 62.013C123.192 61.8615 122.644 61.7605 122.145 61.71H122.345C122.594 61.7605 122.843 61.8615 123.092 62.013C123.341 62.114 123.54 62.316 123.74 62.4675C123.939 62.6695 124.088 62.8715 124.188 63.1745C124.288 63.427 124.337 63.7805 124.387 64.134C124.387 64.74 124.288 65.2955 123.989 65.6995C123.69 66.154 123.341 66.457 122.793 66.7095C122.295 66.962 121.697 67.0629 120.95 67.0629C120.452 67.0629 120.003 67.0124 119.555 66.8105C119.107 66.659 118.758 66.4065 118.409 66.1035C118.11 65.8005 117.812 65.447 117.662 65.043C117.463 64.74 117.363 64.2855 117.363 63.7805ZM118.858 63.7805C118.858 64.134 118.957 64.437 119.157 64.6895C119.356 64.942 119.605 65.144 119.904 65.2955C120.203 65.447 120.551 65.4975 120.95 65.4975C121.548 65.4975 122.046 65.346 122.444 65.043C122.843 64.74 122.992 64.2855 122.992 63.73C122.992 63.427 122.943 63.1745 122.843 62.9725C122.743 62.7705 122.644 62.5685 122.544 62.3665C122.395 62.215 122.245 62.0635 122.096 61.912C122.046 61.912 121.946 61.8615 121.747 61.8615C121.548 61.8615 121.398 61.8615 121.299 61.8615C121.05 61.8615 120.751 61.912 120.502 61.9625C120.203 62.013 119.954 62.1645 119.705 62.316C119.455 62.4675 119.256 62.6695 119.107 62.8715C118.957 63.0735 118.858 63.427 118.858 63.7805Z" fill="white"/>
<path d="M115.918 71.0029L116.217 67.6699L117.512 67.7709L117.263 70.2454L116.665 69.5889L127.774 70.6494L127.027 71.1544L127.276 68.6799L128.571 68.7809L128.272 72.1139L115.918 71.0029Z" fill="white"/>
<path d="M110.837 90.2923C111.186 89.6358 111.634 89.1308 112.083 88.7268C112.531 88.3733 113.079 88.1713 113.627 88.1208C114.175 88.0703 114.773 88.2218 115.42 88.5753L114.673 89.9893C114.324 89.8378 113.976 89.7368 113.677 89.7873C113.378 89.8378 113.079 89.9388 112.78 90.1408C112.531 90.3428 112.282 90.6458 112.033 91.0498C111.834 91.4538 111.684 91.7568 111.634 92.0598C111.585 92.3627 111.634 92.6152 111.734 92.8172C111.834 93.0192 111.983 93.1707 112.232 93.3222C112.481 93.4737 112.73 93.5242 112.979 93.4737C113.229 93.4232 113.527 93.2717 113.826 93.0697C114.125 92.8677 114.524 92.5142 114.972 92.1102C115.42 91.7063 115.869 91.3528 116.367 91.1003C116.815 90.8478 117.313 90.7468 117.762 90.6963C118.21 90.6963 118.708 90.7973 119.156 91.0498C119.953 91.5043 120.402 92.1102 120.551 92.8677C120.701 93.6252 120.501 94.4837 120.003 95.3927C119.655 96.0492 119.306 96.5037 118.858 96.7562C118.459 97.0592 118.011 97.1602 117.513 97.1602C117.014 97.1602 116.516 97.0087 115.919 96.8067L116.666 95.3927C116.965 95.4937 117.264 95.5442 117.463 95.5442C117.712 95.5442 117.911 95.4432 118.11 95.2917C118.31 95.1402 118.509 94.9382 118.658 94.6352C118.907 94.1807 119.007 93.7767 118.957 93.4232C118.907 93.0697 118.708 92.7667 118.359 92.5647C118.16 92.4637 117.961 92.3627 117.712 92.3627C117.513 92.3627 117.214 92.4132 116.915 92.5647C116.616 92.7162 116.217 93.0192 115.719 93.4232C115.371 93.7262 115.022 94.0292 114.673 94.2817C114.324 94.5342 114.026 94.7867 113.677 94.9382C113.328 95.0897 113.029 95.1907 112.631 95.1907C112.282 95.1907 111.884 95.0897 111.485 94.8372C110.688 94.3827 110.19 93.7767 110.09 93.0192C110.04 92.2617 110.289 91.3528 110.837 90.2923Z" fill="white"/>
<path d="M105.358 98.7266L113.378 104.989L112.381 106.301L104.361 100.04L105.358 98.7266ZM108.795 94.1816L116.815 100.444L115.819 101.757L107.799 95.4946L108.795 94.1816ZM111.634 97.8681L112.83 98.7771L109.891 102.615L108.745 101.706L111.634 97.8681Z" fill="white"/>
<path d="M100.377 103.727C100.975 103.171 101.672 102.818 102.419 102.616C103.216 102.464 104.013 102.515 104.81 102.868C105.657 103.171 106.454 103.777 107.251 104.636C107.999 105.444 108.497 106.302 108.746 107.161C108.995 108.019 108.995 108.777 108.796 109.585C108.596 110.342 108.148 111.049 107.5 111.605C106.903 112.211 106.205 112.564 105.408 112.716C104.661 112.867 103.864 112.817 103.017 112.514C102.22 112.211 101.423 111.655 100.676 110.797C99.8788 109.938 99.3806 109.08 99.1315 108.221C98.8825 107.363 98.8326 106.555 99.0817 105.797C99.3308 104.989 99.7293 104.282 100.377 103.727ZM101.423 104.838C101.024 105.191 100.775 105.646 100.676 106.1C100.576 106.605 100.576 107.11 100.775 107.716C100.975 108.322 101.373 108.928 101.971 109.585C102.519 110.191 103.067 110.645 103.665 110.847C104.213 111.1 104.761 111.15 105.209 111.1C105.657 111.049 106.155 110.797 106.504 110.443C106.853 110.09 107.102 109.686 107.251 109.181C107.351 108.676 107.351 108.171 107.152 107.565C106.952 106.959 106.604 106.403 106.006 105.747C105.558 105.242 105.109 104.888 104.711 104.636C104.312 104.383 103.864 104.232 103.465 104.181C103.067 104.131 102.668 104.181 102.32 104.282C101.971 104.383 101.672 104.585 101.423 104.838Z" fill="white"/>
<path d="M95.2454 108.371L102.718 115.795L101.173 116.754L97.8358 113.118L95.1458 110.139L95.096 110.189L96.4908 113.977L98.1347 118.673L96.4908 119.683L93.1532 116.047L90.4632 113.017L90.4134 113.068L91.7584 116.905L93.3525 121.652L91.8082 122.612L88.8691 112.411L90.7123 111.3L94.4484 115.239L96.1421 117.208H96.1919L95.2454 114.785L93.5019 109.634L95.2454 108.371Z" fill="white"/>
<path d="M78.7563 116.25L82.2433 119.331L83.6879 118.876L84.186 118.826L84.3355 119.987L84.3853 120.189L82.7912 120.694C82.3927 120.846 82.0938 120.997 81.8946 121.199C81.6953 121.401 81.5957 121.654 81.5459 121.906C81.4961 122.159 81.5459 122.512 81.6455 122.815C81.7949 123.219 81.9444 123.472 82.1436 123.623C82.3429 123.775 82.592 123.876 82.841 123.876C83.0901 123.876 83.389 123.825 83.6879 123.724L84.9333 123.32L85.0827 123.674L85.9794 124.633C85.7801 124.684 85.5808 124.785 85.3816 124.835C85.1823 124.886 84.9831 124.987 84.7838 125.037C84.5846 125.088 84.3355 125.189 84.0864 125.29C83.4886 125.492 82.8909 125.593 82.3927 125.542C81.8946 125.492 81.3964 125.34 80.9979 124.987C80.5994 124.684 80.3005 124.179 80.1012 123.522C79.9518 123.068 79.902 122.664 79.9518 122.209C80.0016 121.755 80.1012 121.3 80.3503 120.896C80.5994 120.492 80.9481 120.139 81.3964 119.886L81.5459 119.937C81.3466 119.987 81.1972 120.038 81.0477 120.038C80.8983 120.038 80.7986 120.038 80.6492 119.937C80.4998 119.886 80.3503 119.785 80.1511 119.583L76.7637 116.806L78.7563 116.25ZM83.8872 114.584L87.0255 124.381L85.4812 124.886L82.3429 115.089L83.8872 114.584Z" fill="white"/>
<path d="M76.3157 116.957L78.0592 127.107L71.9818 128.168L71.7327 126.653L76.8636 125.744L76.3157 126.602L75.6681 122.764L76.4153 123.118L71.6331 123.976L71.384 122.461L75.8673 121.653L75.5685 122.259L74.8212 118.018L75.6183 118.674L70.3877 119.583L70.1387 118.018L76.3157 116.957Z" fill="white"/>
<path d="M69.1917 118.068L69.5902 128.32L63.4132 128.572L63.3634 127.007L68.5939 126.805L67.9463 127.613L67.7969 123.724L68.4943 124.179L63.6622 124.381L63.6124 122.866L68.1456 122.714L67.747 123.219L67.5976 118.927L68.295 119.684L63.0147 119.886L62.9648 118.321L69.1917 118.068Z" fill="white"/>
<path d="M61.969 118.22L61.0225 128.471L59.3786 128.32L60.2753 118.775L60.9727 119.735L55.9414 119.28L56.0908 117.715L61.969 118.22Z" fill="white"/>
<path d="M35.0897 122.925L32.1665 121.323L32.7719 120.178L34.9362 121.379L34.0977 121.668L39.4922 111.898L39.6573 112.774L37.4931 111.573L38.0985 110.428L41.0216 112.03L35.0897 122.925Z" fill="white"/>
<path d="M36.414 110.341C35.9656 110.442 35.5671 110.593 35.1188 110.694C34.7203 110.795 34.2719 110.947 33.8734 111.048C33.4749 111.149 33.0266 111.3 32.628 111.401C32.2295 111.502 31.831 111.654 31.4325 111.755C30.8845 111.906 30.3864 112.058 29.9381 112.209C29.4897 112.361 29.0912 112.512 28.7425 112.664C28.3938 112.866 28.0949 113.118 27.8458 113.472C27.5968 113.876 27.4971 114.229 27.547 114.583C27.6466 114.936 27.8458 115.29 28.2444 115.542C28.5433 115.744 28.8421 115.845 29.141 115.896C29.4399 115.946 29.7388 115.845 30.0377 115.694C30.3366 115.492 30.6355 115.189 30.8845 114.684L32.1299 115.593C31.7314 116.35 31.2831 116.855 30.7351 117.158C30.1871 117.461 29.689 117.562 29.0912 117.461C28.5433 117.36 27.9455 117.108 27.3477 116.653C26.8496 116.3 26.451 115.845 26.202 115.441C25.9529 114.987 25.8533 114.532 25.9031 114.027C25.9529 113.522 26.1522 113.068 26.5009 112.563C26.7997 112.108 27.1484 111.805 27.4971 111.553C27.8458 111.3 28.2444 111.149 28.6429 110.997C29.0414 110.846 29.4897 110.694 29.9879 110.543C30.3864 110.391 30.7849 110.29 31.1834 110.189C31.5819 110.088 31.9805 109.937 32.3292 109.836C32.6779 109.735 33.0764 109.634 33.3753 109.533C33.1262 109.583 32.9269 109.583 32.6779 109.432C32.4786 109.331 32.1797 109.129 31.7812 108.826L29.9879 107.563L30.8347 106.301L36.414 110.341Z" fill="white"/>
<path d="M27.9453 103.322C28.4434 103.827 28.7921 104.382 28.9416 105.039C29.091 105.695 28.9914 106.402 28.6925 107.16C28.3936 107.917 27.7959 108.826 26.8992 109.735C26.0523 110.644 25.2553 111.25 24.5081 111.604C23.7609 111.957 23.0635 112.058 22.4159 111.957C21.7683 111.856 21.1705 111.553 20.6724 111.048C20.1742 110.543 19.8255 109.988 19.6761 109.331C19.5266 108.675 19.6263 107.968 19.9252 107.21C20.224 106.453 20.8218 105.594 21.6687 104.685C22.5653 103.726 23.3624 103.12 24.1096 102.716C24.8568 102.312 25.5542 102.211 26.2018 102.312C26.8494 102.514 27.4472 102.817 27.9453 103.322ZM26.8992 104.433C26.6501 104.18 26.3014 104.029 25.9527 104.029C25.604 104.029 25.1557 104.13 24.6575 104.433C24.1594 104.736 23.5616 105.241 22.914 105.948C22.2664 106.604 21.8679 107.21 21.6189 107.715C21.3698 108.22 21.2701 108.675 21.32 109.028C21.3698 109.382 21.5192 109.735 21.7683 109.988C22.0174 110.24 22.3661 110.392 22.7148 110.392C23.1133 110.392 23.5118 110.291 24.0099 109.988C24.5081 109.685 25.0561 109.23 25.7036 108.574C26.3512 107.867 26.7996 107.261 27.0985 106.705C27.3475 106.2 27.4472 105.746 27.3973 105.342C27.3475 105.039 27.1483 104.685 26.8992 104.433Z" fill="white"/>
<path d="M25.1565 100.898C24.7082 100.898 24.2599 100.898 23.8115 100.898C23.3632 100.898 22.9149 100.898 22.5164 100.898C22.068 100.898 21.6695 100.898 21.2212 100.898C20.7729 100.898 20.3743 100.898 19.9758 100.898C19.378 100.898 18.8799 100.898 18.4316 100.898C17.9832 100.898 17.5349 100.948 17.1364 100.999C16.7379 101.1 16.3892 101.251 16.0903 101.504C15.7416 101.807 15.5423 102.11 15.4925 102.514C15.4925 102.867 15.5921 103.271 15.891 103.625C16.0903 103.877 16.3394 104.079 16.6382 104.231C16.9371 104.332 17.236 104.382 17.5847 104.281C17.9334 104.18 18.2821 103.928 18.6806 103.524L19.6271 104.736C19.0293 105.342 18.4316 105.746 17.8836 105.897C17.3356 106.049 16.7877 105.998 16.2397 105.746C15.6918 105.493 15.2434 105.089 14.7453 104.483C14.3468 103.978 14.0977 103.473 13.9483 102.968C13.8486 102.463 13.8486 102.009 14.0479 101.554C14.1973 101.1 14.546 100.696 14.9944 100.292C15.3929 99.9381 15.7914 99.7361 16.1899 99.5846C16.5884 99.4331 17.0368 99.3826 17.4353 99.3321C17.8836 99.2816 18.3319 99.2816 18.8799 99.2816C19.2784 99.2816 19.7267 99.2311 20.1253 99.2311C20.5238 99.2311 20.9223 99.2311 21.3208 99.2311C21.7193 99.2311 22.068 99.2311 22.4167 99.2311C22.1677 99.2311 21.9684 99.1301 21.7691 98.9786C21.5699 98.7766 21.3706 98.5241 21.0717 98.1706L19.7267 96.4536L20.8725 95.4941L25.1565 100.898Z" fill="white"/>
<path d="M19.0286 92.1623C19.2777 92.5663 19.4769 93.0207 19.5766 93.4247C19.6762 93.8792 19.726 94.2832 19.6762 94.7377C19.6264 95.1922 19.4769 95.5457 19.1781 95.9497C18.929 96.3032 18.5305 96.6567 17.9825 96.9092L17.1357 95.4952C17.6338 95.2427 17.9327 94.8892 18.0821 94.4347C18.1818 93.9802 18.0821 93.4752 17.7334 92.9197C17.5342 92.6168 17.3349 92.3643 17.0858 92.1623C16.8368 91.9603 16.5877 91.8593 16.2888 91.8088C15.9899 91.7583 15.691 91.8593 15.3921 92.0613C14.8442 92.4148 14.5453 92.7683 14.5453 93.2227C14.4955 93.6772 14.6449 94.1317 14.9438 94.6367L15.4918 95.5457L14.2962 96.3032L13.7483 95.3942C13.549 95.0912 13.3497 94.8892 13.1007 94.7377C12.8516 94.6367 12.6025 94.5862 12.3535 94.5862C12.1044 94.5862 11.8553 94.6872 11.6062 94.8387C11.2077 95.0912 11.0085 95.3942 10.9088 95.7477C10.859 96.1012 10.9586 96.5052 11.1579 96.8587C11.407 97.2627 11.7059 97.5152 12.0546 97.6162C12.4531 97.7172 12.8516 97.6162 13.3996 97.2627L14.2464 98.6767C13.6486 99.0807 13.0509 99.2827 12.5527 99.3332C12.0546 99.3837 11.5564 99.2322 11.1081 98.9797C10.6598 98.6767 10.2612 98.2222 9.91254 97.6162C9.36458 96.7072 9.16532 95.8992 9.36458 95.1922C9.51403 94.4852 9.96236 93.9297 10.6598 93.4752C10.9586 93.2732 11.2575 93.1722 11.6062 93.1217C11.9549 93.0712 12.3036 93.1217 12.7022 93.2227C13.0509 93.3742 13.3996 93.5762 13.6984 93.9802C13.3497 93.2732 13.2501 92.6673 13.3996 92.0613C13.549 91.5058 13.9475 91.0008 14.5951 90.5968C15.1431 90.2433 15.691 90.0918 16.239 90.1423C16.787 90.1928 17.2851 90.3443 17.7334 90.6978C18.2814 91.1018 18.6799 91.5563 19.0286 92.1623Z" fill="white"/>
<path d="M12.104 87.7688L10.8587 88.2738L9.51367 84.9913L10.8089 84.4863L12.104 87.7688Z" fill="white"/>
<path d="M13.3509 80.1419C12.9524 79.9399 12.5539 79.7379 12.1554 79.5359C11.7568 79.3339 11.3583 79.1319 10.9598 78.9804C10.5613 78.7784 10.1628 78.6269 9.81407 78.4249C9.41556 78.2229 9.06685 78.0714 8.66834 77.8694C8.17019 77.6169 7.67205 77.4149 7.27353 77.2129C6.87501 77.011 6.4765 76.8595 6.07798 76.7585C5.67946 76.6575 5.33076 76.6575 4.88243 76.7585C4.4341 76.8595 4.13521 77.0615 3.93595 77.415C3.73669 77.7684 3.73669 78.1219 3.83632 78.5764C3.93595 78.9299 4.03558 79.1824 4.23484 79.4349C4.4341 79.6874 4.68317 79.8389 5.03187 79.8894C5.38058 79.9399 5.82891 79.8894 6.32705 79.6874L6.67575 81.2024C5.87872 81.5054 5.18132 81.5559 4.63336 81.4549C4.03558 81.3539 3.58725 81.0509 3.23855 80.5964C2.88985 80.1419 2.59096 79.5359 2.44152 78.8289C2.29207 78.1724 2.29207 77.6169 2.3917 77.112C2.49133 76.607 2.7404 76.203 3.0891 75.8495C3.43781 75.496 3.88614 75.294 4.48391 75.1425C4.98206 75.0415 5.4802 74.991 5.87872 75.0415C6.27724 75.092 6.72557 75.193 7.12409 75.395C7.5226 75.5465 7.97093 75.7485 8.41926 75.9505C8.81778 76.102 9.16648 76.304 9.565 76.4555C9.96352 76.607 10.3122 76.809 10.6609 76.9605C11.0096 77.1119 11.3583 77.314 11.6572 77.415C11.458 77.314 11.3085 77.112 11.2089 76.91C11.1093 76.6575 11.0096 76.304 10.91 75.9L10.4118 73.7285L11.8565 73.375L13.3509 80.1419Z" fill="white"/>
<path d="M11.6075 69.3349C11.6574 69.9914 11.5577 70.5974 11.3087 71.2034C11.0596 71.7589 10.6113 72.2134 10.0135 72.6174C9.4157 72.9709 8.66849 73.2234 7.77182 73.3244C6.97479 73.4254 6.27739 73.3749 5.57998 73.2234C4.88258 73.0719 4.2848 72.8699 3.73684 72.6174C3.18888 72.3649 2.74055 72.0619 2.29222 71.8094C1.8937 71.5064 1.59482 71.2539 1.34574 71.0519L1.14648 68.6784C1.34574 68.8804 1.64463 69.1329 1.8937 69.3854C2.19259 69.6379 2.54129 69.9409 2.88999 70.1934C3.2387 70.4459 3.63721 70.6984 4.08554 70.9509C4.53388 71.2034 4.98221 71.3549 5.43054 71.5064C5.92868 71.6579 6.42683 71.7084 6.97479 71.6579L6.77553 71.7084C6.52646 71.6579 6.27739 71.6074 6.02831 71.5064C5.77924 71.4054 5.57998 71.2539 5.33091 71.1024C5.08184 70.9509 4.93239 70.6984 4.83276 70.4459C4.68332 70.1934 4.6335 69.8904 4.58369 69.5369C4.53388 68.9309 4.6335 68.3754 4.83276 67.9209C5.08184 67.4665 5.43054 67.113 5.92868 66.81C6.42683 66.5575 7.0246 66.3555 7.72201 66.305C8.22015 66.2545 8.7183 66.305 9.16663 66.406C9.61496 66.5575 10.0135 66.7595 10.3622 67.012C10.7109 67.2645 11.0098 67.6179 11.209 68.0219C11.4083 68.4259 11.5577 68.8804 11.6075 69.3349ZM10.1131 69.5369C10.0633 69.1834 9.96367 68.8804 9.76441 68.6279C9.56515 68.3754 9.31607 68.1734 8.96737 68.0724C8.61867 67.9714 8.26997 67.9209 7.92127 67.9714C7.32349 68.0219 6.82535 68.2239 6.47664 68.5269C6.12794 68.8299 5.9785 69.2844 6.02831 69.8904C6.07813 70.1934 6.12794 70.4459 6.22757 70.6479C6.3272 70.8499 6.42683 71.0519 6.57627 71.2034C6.72572 71.3549 6.87516 71.5064 7.0246 71.6074C7.07442 71.6074 7.17405 71.6074 7.37331 71.6074C7.57256 71.6074 7.72201 71.5569 7.82164 71.5569C8.07071 71.5064 8.3696 71.4559 8.61867 71.3549C8.86774 71.2539 9.16663 71.1024 9.36589 70.9509C9.61496 70.7994 9.76441 70.5974 9.91385 70.3449C10.1131 70.1429 10.1629 69.8399 10.1131 69.5369Z" fill="white"/>
<path d="M12.4536 62.1144L12.4038 65.4474H11.1087L11.1585 62.9729L11.8061 63.5789L0.64759 63.3769L1.34499 62.8214L1.29518 65.2959H0L0.0498146 61.9629L12.4536 62.1144Z" fill="white"/>
<circle cx="84.6437" cy="9.64369" r="1.07143" fill="white"/>
<circle cx="119.999" cy="80.3566" r="1.07143" fill="white"/>
<circle cx="47.1437" cy="121.071" r="1.07143" fill="white"/>
<circle cx="6.42885" cy="50.3566" r="1.07143" fill="white"/>
</g>
<defs>
<clipPath id="clip0_1033_2994">
<rect width="128.571" height="128.571" fill="white"/>
</clipPath>
</defs>
</svg>
